<?xml version="1.0" encoding="utf-8"?>
<!-- Generator: Adobe Illustrator 19.1.0, SVG Export Plug-In . SVG Version: 6.00 Build 0)  -->
<svg version="1.1" id="Layer_1" xmlns="http://www.w3.org/2000/svg" xmlns:xlink="http://www.w3.org/1999/xlink" x="0px" y="0px"
	 width="55px" height="50px" viewBox="0 0 55 50" style="enable-background:new 0 0 55 50;" xml:space="preserve">
<style type="text/css">
	.st0{fill:#9B1F4E;}
</style>
<path class="st0" d="M14.481,18.5332c-0.7202-0.5591-1.5457-0.7917-2.9999-0.9708C10.7039,17.4587,7.7865,17.5108,0,17.57V36.5
	h5.0679l-0.0227-4.9217c1.085,0.3525,2.2448,0.7459,2.9788,0.9268c0.8438,0.2088,1.6593,0.3026,2.4276,0.332
	c1.3377,0.0525,1.9745-0.1313,2.9423-0.4667c1.9455-0.6629,2.6687-2.2265,3.0681-3.6878c0.6461-2.3628,0.5546-5.1744-0.0823-7.325
	C16.1042,20.424,15.3643,19.2147,14.481,18.5332z M11.4259,26.8885c-0.1507,0.5237-0.5244,1.4498-1.3597,1.7661
	c-0.4798,0.1794-1.1545,0.2866-1.6161,0.2799c-0.4541-0.0059-0.7537-0.0212-0.983-0.0431
	c-1.0519-0.1028-1.7364-0.2565-2.3985-0.4515v-7.4721c2.5816-0.096,4.0425-0.0141,4.0425-0.0141
	c1.4181,0.14,1.9645,0.6644,2.3311,1.9991C11.7665,24.1368,11.7126,25.8173,11.4259,26.8885z M30.8749,23.1162
	c2.327-1.2681,4.7226-1.618,4.7226-1.618v-4.1598c0,0-1.8908,0.4087-3.9365,1.2834c-2.7111,1.1605-4.6451,2.6594-5.1874,3.0361
	c-0.4965,0.345-0.9931,0.715-1.4803,1.1017V11.5008L19.7801,11.5v21.1186h5.2131v-6.5099l4.9868,6.5136l6.7607-0.0149
	l-7.6912-8.3427C29.5305,23.8979,29.9861,23.6019,30.8749,23.1162z M43.0565,17.5625c-1.4502,0.1791-2.2332,0.4441-2.936,1.0038
	c-0.8635,0.6812-1.5975,1.8577-1.8462,2.7912c-0.5687,2.1505-0.5732,4.9622,0.1459,7.325c0.4452,1.4613,1.1539,3.191,3.1206,3.8542
	c0.8337,0.2855,1.4992,0.4466,2.6352,0.3693c0.7668-0.0521,1.9429-0.3592,2.7588-0.6187c0.8173-0.2605,1.6719-0.5207,2.7766-0.9506
	v1.2818h5.0665V17.57C46.9914,17.5108,43.8291,17.4587,43.0565,17.5625z M49.7115,28.3785c-0.874,0.265-1.9771,0.4917-3.265,0.5509
	c-0.4615,0.0104-1.1136-0.0953-1.599-0.2747c-0.8486-0.3163-1.2566-1.2424-1.4263-1.7661
	c-0.3291-1.0712-0.4467-2.7517-0.1668-3.9357c0.2933-1.2364,0.9558-1.8707,2.2556-1.9991c0,0,1.5767-0.0893,4.2015,0.0067V28.3785z"
	/>
</svg>